<?xml version="1.0" encoding="iso-8859-1"?>
<!-- Generator: Adobe Illustrator 19.0.0, SVG Export Plug-In . SVG Version: 6.00 Build 0)  -->
<!--  Icon made by Freepik from www.flaticon.com  -->
<svg xmlns="http://www.w3.org/2000/svg" width="300" height="300" viewBox="0 0 500 500"><polygon points="420 210 375.8 247.9 399.2 301.1 342.9 316 340.9 374.2 283.8 363.2 256.7 414.8 210 380 163.3 414.8 136.2 363.2 79.1 374.2 77.1 316 20.8 301.1 44.2 247.9 0 210 44.2 172.1 20.8 118.9 77.1 104 79.1 45.8 136.2 56.8 163.3 5.2 210 40 256.7 5.2 283.8 56.8 340.9 45.8 342.9 104 399.2 118.9 375.8 172.1 " fill="#F5C525"/><circle cx="210" cy="210" r="140" fill="#F8A805"/></svg>
